<svg aria-hidden="true" style="width:0;height:0;position:absolute;overflow:hidden" xmlns="http://www.w3.org/2000/svg"><defs><symbol id="icon-Vector-6" viewBox="0 0 32 32"><path fill="#fff" style="fill:var(--color1,#fff)" d="M16 0C7.212 0 0 7.212 0 16c0 7.499 5.262 14.312 12.25 16v-5.293c-.692.152-1.33.156-2.034-.052-.946-.279-1.714-.909-2.284-1.869-.364-.613-1.008-1.278-1.68-1.23l-.165-1.868c1.453-.124 2.711.886 3.457 2.14.332.558.713.884 1.203 1.029.473.14.982.072 1.574-.137.149-1.186.692-1.63 1.102-2.255-4.167-.622-5.828-2.833-6.488-4.579-.874-2.317-.405-5.212 1.14-7.041.03-.036.084-.129.063-.194-.708-2.139.155-3.909.187-4.097.817.242.95-.243 3.551 1.337l.449.27c.188.112.129.048.317.034A13.544 13.544 0 0 1 16 7.723c1.136.015 2.273.178 3.404.484l.145.015c-.013-.002.04-.009.127-.062 3.248-1.968 3.132-1.324 4.003-1.608.032.188.883 1.987.182 4.099-.095.291 2.816 2.956 1.203 7.235-.659 1.746-2.32 3.957-6.487 4.578.534.814 1.176 1.248 1.173 2.928V32C26.738 30.312 32 23.499 32 16c0-8.788-7.212-16-16-16z"/></symbol><symbol id="icon-heart" viewBox="0 0 28 32"><path d="M2.688 2.176C.448 4.224.32 4.608.32 8.128c0 4.608 1.856 7.68 7.424 12.032l3.776 2.944V32h5.12v-8.896l3.776-2.944c5.568-4.352 7.424-7.424 7.424-12.032 0-3.52-.128-3.904-2.368-5.952-2.944-2.688-5.696-2.88-9.088-.576L14.08 3.136 11.776 1.6C8.384-.704 5.632-.512 2.688 2.176zm8.256 1.344c.832.832 2.24 1.6 3.136 1.6s2.304-.768 3.136-1.6c3.2-3.456 8.512-.896 8.64 4.16.064 3.072-.896 3.968-1.856 1.792-1.408-3.136-5.44-1.728-5.44 1.92 0 2.304-1.536 1.344-1.92-1.216C16.32 8.192 16.128 8 14.08 8s-2.24.192-2.56 2.176c-.384 2.56-1.92 3.52-1.92 1.216 0-3.648-4.032-5.056-5.44-1.92-.96 2.176-1.92 1.28-1.856-1.792.128-5.056 5.44-7.616 8.64-4.16zM7.68 12.224c.256 1.856.576 2.24 2.24 2.368 2.112.256 3.52-1.152 3.52-3.52 0-.832.32-1.472.64-1.472.384 0 .64.64.64 1.472 0 2.368 1.408 3.776 3.52 3.52 1.664-.128 1.984-.512 2.24-2.368.32-2.048 1.92-3.712 1.92-1.92 0 .448.512 1.344 1.088 1.984 1.024 1.152.96 1.344-1.408 3.712-3.904 3.968-7.104 5.952-8.832 5.504-.832-.192-3.392-2.048-5.632-4.16-3.968-3.648-4.032-3.776-2.944-4.992.576-.704 1.088-1.6 1.088-2.048 0-1.792 1.6-.128 1.92 1.92zm7.04 14.656c0 1.728-.256 3.2-.64 3.2-.32 0-.64-1.472-.64-3.2 0-1.792.32-3.2.64-3.2.384 0 .64 1.408.64 3.2z"/></symbol><symbol id="icon-apple" viewBox="0 0 32 32"><path d="M3.648 1.152c-.096.608-.064 1.856.096 2.72.32 1.504.288 1.632-.352 1.888C1.856 6.336.64 7.968.64 9.408c0 .448-.128.832-.32.832-.384 0-.416 2.368-.032 3.136.16.288.448 1.536.672 2.784.352 2.08.64 3.584 1.28 6.72.16.704.448 2.272.672 3.52.192 1.216.576 3.008.832 3.904L4.192 32h8.48c5.984 0 8.448-.096 8.448-.352 0-.224.352-.288 1.056-.16 2.464.512 4.864.448 6.144-.128 2.304-1.024 3.68-3.264 3.68-5.952 0-2.72-1.44-4.288-4-4.288-1.28 0-1.44-.48-.608-1.92.64-1.024.416-1.92-.448-1.92-.8 0-1.792 1.152-2.336 2.656-.48 1.408-1.376 1.664-1.12.32.064-.512.32-1.92.512-3.136.224-1.248.512-2.656.672-3.168.48-1.504.352-3.616-.192-3.84-.288-.096-.48-.608-.48-1.312 0-1.536-.736-3.2-1.696-3.84-.448-.288-1.504-.544-2.336-.576-1.44-.064-1.568-.128-1.472-.832.064-.416.416-1.184.768-1.664.576-.736.608-.992.256-1.408-.224-.256-.608-.48-.896-.48-.704 0-1.888 1.568-2.368 3.136-.416 1.408-.416 1.408-1.632 1.216-.704-.128-1.76-.576-2.368-1.056-1.408-1.088-3.424-1.152-4.832-.16-1.376 1.024-1.664.896-1.664-.704C5.76.512 5.504 0 4.608 0 4 0 3.84.224 3.648 1.152zm7.52 4.16c.96 1.216 1.44 3.264 1.024 4.192-.32.704-.448.736-4.32.736-2.176 0-4.192-.096-4.48-.192-.704-.288-.64-.96.224-1.728.576-.544.96-.672 2.016-.512C7.072 8 7.68 7.616 7.68 6.592c0-.864 1.248-2.112 2.112-2.112.384 0 1.024.384 1.376.832zm10.016 1.632c.736.672.8 2.816.064 3.104-.288.096-1.792.192-3.36.192-3.136 0-2.976.096-3.296-2.176-.224-1.536.256-1.792 1.248-.704.768.832 1.312.8 2.464-.16 1.088-.928 2.048-1.024 2.88-.256zM22.4 13.12c0 2.304-2.944 5.504-5.92 6.368-2.432.704-6.464.544-8.512-.384-2.72-1.216-5.088-4.16-5.088-6.304 0-.64.16-.64 9.76-.64h9.76v.96zm-16 7.552c3.136 1.504 5.6 1.92 8.416 1.408 1.28-.224 3.136-.832 4.16-1.312 2.176-1.088 2.144-1.088 2.144-.32 0 .32-.416.928-.896 1.344-1.632 1.44-2.016 3.104-1.216 5.728.224.8.352 1.632.288 1.824-.128.32-1.76.416-6.784.416H5.888l-.352-1.536c-.224-.832-.544-2.528-.736-3.744-.224-1.248-.512-2.656-.672-3.168-.352-1.12-.384-1.888-.032-1.728.128.032 1.152.544 2.304 1.088zm17.856 3.488c.544.448 1.024.8 1.088.8.096 0 .544-.352 1.024-.8.992-.928 2.144-1.024 2.88-.288.928.896.544 3.552-.704 4.768-.704.704-1.056.8-3.296.8-2.496 0-2.496 0-3.36-1.152-1.024-1.344-1.28-4.064-.448-4.608.832-.512 1.824-.352 2.816.48z"/></symbol><symbol id="icon-telegram-2" viewBox="0 0 32 32"><path d="M29.813 2.837c-2.125.781-28.344 10.85-28.731 11.037-1.281.606-1.431 1.406-.363 1.95.106.056 1.875.619 3.944 1.262l3.756 1.169 8.525-5.338c4.694-2.931 8.625-5.369 8.738-5.406.294-.1.544-.094.656.025.081.081.087.119.019.237-.038.081-3.156 2.913-6.919 6.287-3.762 3.381-6.856 6.169-6.869 6.2s-.137 1.719-.281 3.75l-.262 3.688.287-.038c.156-.019.4-.1.544-.181.15-.075 1.125-.962 2.181-1.969 1.05-1.006 1.95-1.85 1.994-1.863.044-.019 1.719 1.169 3.725 2.637 2 1.469 3.794 2.738 3.988 2.825.506.238 1.069.256 1.438.063.331-.175.65-.613.788-1.069.05-.175 1.2-5.469 2.544-11.762 2.244-10.475 2.45-11.488 2.45-12.031 0-.513-.019-.638-.156-.906a1.378 1.378 0 0 0-.425-.5c-.369-.256-.981-.288-1.569-.069z"/></symbol><symbol id="icon-milk" viewBox="0 0 29 32"><path d="M6.188.769c0 .975.081 1.631.319 2.594.1.419.169.8.138.844-.025.037-.544.744-1.156 1.563-.612.813-1.169 1.6-1.244 1.75-.712 1.388-.125 3.1 1.3 3.8.375.188.487.213 1.044.231.756.025 1.2-.088 1.756-.456.281-.188.512-.45 1.106-1.231l.744-.994.169.106c.806.531 1.65.963 2.406 1.225l.419.144v.919c0 1.431.175 1.988.838 2.644 1.338 1.331 3.569 1.006 4.431-.637.294-.569.356-.919.356-2.006v-.919l.512-.181a10.063 10.063 0 0 0 2.012-1c.238-.162.438-.287.45-.287s.319.4.688.887c.869 1.169 1.113 1.387 1.869 1.675.469.175 1.212.194 1.725.044.775-.231 1.5-.912 1.813-1.719.119-.287.144-.481.144-1.012.006-.613-.006-.688-.188-1.069-.113-.237-.706-1.088-1.369-1.963l-1.169-1.55.188-.788c.238-.962.325-1.688.325-2.65V.002H6.189v.769zm17.687 1.212c-.006.219-.244 1.188-.406 1.644a7.398 7.398 0 0 1-.45.998l.065-.123c.031 0 1.698 2.081 2.117 2.638.419.563.813 1.119.875 1.237.306.594-.119 1.325-.775 1.325-.462 0-.625-.131-1.387-1.15L22.083 6c-.684.82-1.522 1.515-2.425 1.981a8.298 8.298 0 0 1-2.063.731l-.625.144-.031 1.681c-.038 1.894-.056 1.981-.512 2.219-.306.156-.569.15-.875-.019-.438-.25-.45-.306-.488-2.2l-.031-1.681-.406-.081c-1.836-.371-3.434-1.307-4.591-2.619L8.09 8.55C7.327 9.569 7.165 9.7 6.702 9.7c-.319 0-.525-.125-.744-.45-.225-.325-.194-.662.094-1.081.237-.35 2.919-3.506 2.944-3.513A7.757 7.757 0 0 1 8.321 2.9a7.996 7.996 0 0 1-.162-.762l-.044-.262h7.881c7.463 0 7.881.006 7.881.106zM7.412 16.825c.031.238 1.463 15.006 1.463 15.106 0 .05 2.15.069 7.125.069 5.406 0 7.125-.019 7.125-.075 0-.106 1.431-14.863 1.462-15.1l.031-.2H7.38l.031.2zm15.1 2.031c-.081 1.012-.587 2.3-1.262 3.194-.925 1.225-2.181 2.056-3.719 2.456-.813.212-2.25.212-3.063 0-1.956-.506-3.519-1.769-4.375-3.531-.3-.613-.563-1.525-.606-2.119l-.031-.356h13.088l-.031.356zm-11.168 6.3c.275.181.681.419.906.531.512.256 1.706.65 2.313.756.681.125 2.331.106 3.012-.025 1.519-.3 2.981-1.031 4.05-2.025l.394-.363-.038.25c-.019.137-.156 1.506-.3 3.044l-.269 2.8h-10.85v-.144c0-.075-.125-1.431-.281-3.012S10 24.081 10 24.074c0-.012.188.15.425.363.231.212.644.538.919.719z"/></symbol><symbol id="icon-close" viewBox="0 0 32 32"><path stroke-width="2" d="m2.519 2 26.963 28M2 29.481 30 2.518"/></symbol><symbol id="icon-Burger" viewBox="0 0 46 32"><path stroke-width="2.286" d="M0 2.286h45.714M0 16h45.714M0 29.714h45.714"/></symbol><symbol id="icon-Vector-1" viewBox="0 0 19 32"><path fill="none" stroke-linejoin="round" stroke-linecap="round" stroke-width="6.4" d="M3.2 3.2 16 16 3.2 28.8"/></symbol><symbol id="icon-facebook" viewBox="0 0 32 32"><path d="M21.329 5.313h2.921V.225C23.746.156 22.013 0 19.994 0c-4.212 0-7.097 2.649-7.097 7.519V12H8.249v5.688h4.648V32h5.699V17.689h4.46l.708-5.688h-5.169V8.082c.001-1.644.444-2.769 2.735-2.769z"/></symbol></defs></svg>