<svg aria-hidden="true" style="position: absolute; width: 0; height: 0; overflow: hidden;" version="1.1" xmlns="http://www.w3.org/2000/svg" xmlns:xlink="http://www.w3.org/1999/xlink">
<defs>
<symbol id="icon-Vector-6" viewBox="0 0 32 32">
<path fill="#fff" style="fill: var(--color1, #fff)" d="M16 0c-8.788 0-16 7.212-16 16 0 7.499 5.262 14.312 12.25 16v-5.293c-0.692 0.152-1.33 0.156-2.034-0.052-0.946-0.279-1.714-0.909-2.284-1.869-0.364-0.613-1.008-1.278-1.68-1.23l-0.165-1.868c1.453-0.124 2.711 0.886 3.457 2.14 0.332 0.558 0.713 0.884 1.203 1.029 0.473 0.14 0.982 0.072 1.574-0.137 0.149-1.186 0.692-1.63 1.102-2.255-4.167-0.622-5.828-2.833-6.488-4.579-0.874-2.317-0.405-5.212 1.14-7.041 0.030-0.036 0.084-0.129 0.063-0.194-0.708-2.139 0.155-3.909 0.187-4.097 0.817 0.242 0.95-0.243 3.551 1.337l0.449 0.27c0.188 0.112 0.129 0.048 0.317 0.034 1.086-0.295 2.23-0.458 3.358-0.472 1.136 0.015 2.273 0.178 3.404 0.484l0.145 0.015c-0.013-0.002 0.040-0.009 0.127-0.062 3.248-1.968 3.132-1.324 4.003-1.608 0.032 0.188 0.883 1.987 0.182 4.099-0.095 0.291 2.816 2.956 1.203 7.235-0.659 1.746-2.32 3.957-6.487 4.578 0.534 0.814 1.176 1.248 1.173 2.928v6.608c6.988-1.688 12.25-8.501 12.25-16 0-8.788-7.212-16-16-16z"></path>
</symbol>
<symbol id="icon-heart" viewBox="0 0 28 32">
<path d="M2.688 2.176c-2.24 2.048-2.368 2.432-2.368 5.952 0 4.608 1.856 7.68 7.424 12.032l3.776 2.944v8.896h5.12v-8.896l3.776-2.944c5.568-4.352 7.424-7.424 7.424-12.032 0-3.52-0.128-3.904-2.368-5.952-2.944-2.688-5.696-2.88-9.088-0.576l-2.304 1.536-2.304-1.536c-3.392-2.304-6.144-2.112-9.088 0.576zM10.944 3.52c0.832 0.832 2.24 1.6 3.136 1.6s2.304-0.768 3.136-1.6c3.2-3.456 8.512-0.896 8.64 4.16 0.064 3.072-0.896 3.968-1.856 1.792-1.408-3.136-5.44-1.728-5.44 1.92 0 2.304-1.536 1.344-1.92-1.216-0.32-1.984-0.512-2.176-2.56-2.176s-2.24 0.192-2.56 2.176c-0.384 2.56-1.92 3.52-1.92 1.216 0-3.648-4.032-5.056-5.44-1.92-0.96 2.176-1.92 1.28-1.856-1.792 0.128-5.056 5.44-7.616 8.64-4.16zM7.68 12.224c0.256 1.856 0.576 2.24 2.24 2.368 2.112 0.256 3.52-1.152 3.52-3.52 0-0.832 0.32-1.472 0.64-1.472 0.384 0 0.64 0.64 0.64 1.472 0 2.368 1.408 3.776 3.52 3.52 1.664-0.128 1.984-0.512 2.24-2.368 0.32-2.048 1.92-3.712 1.92-1.92 0 0.448 0.512 1.344 1.088 1.984 1.024 1.152 0.96 1.344-1.408 3.712-3.904 3.968-7.104 5.952-8.832 5.504-0.832-0.192-3.392-2.048-5.632-4.16-3.968-3.648-4.032-3.776-2.944-4.992 0.576-0.704 1.088-1.6 1.088-2.048 0-1.792 1.6-0.128 1.92 1.92zM14.72 26.88c0 1.728-0.256 3.2-0.64 3.2-0.32 0-0.64-1.472-0.64-3.2 0-1.792 0.32-3.2 0.64-3.2 0.384 0 0.64 1.408 0.64 3.2z"></path>
</symbol>
<symbol id="icon-apple" viewBox="0 0 32 32">
<path d="M3.648 1.152c-0.096 0.608-0.064 1.856 0.096 2.72 0.32 1.504 0.288 1.632-0.352 1.888-1.536 0.576-2.752 2.208-2.752 3.648 0 0.448-0.128 0.832-0.32 0.832-0.384 0-0.416 2.368-0.032 3.136 0.16 0.288 0.448 1.536 0.672 2.784 0.352 2.080 0.64 3.584 1.28 6.72 0.16 0.704 0.448 2.272 0.672 3.52 0.192 1.216 0.576 3.008 0.832 3.904l0.448 1.696h8.48c5.984 0 8.448-0.096 8.448-0.352 0-0.224 0.352-0.288 1.056-0.16 2.464 0.512 4.864 0.448 6.144-0.128 2.304-1.024 3.68-3.264 3.68-5.952 0-2.72-1.44-4.288-4-4.288-1.28 0-1.44-0.48-0.608-1.92 0.64-1.024 0.416-1.92-0.448-1.92-0.8 0-1.792 1.152-2.336 2.656-0.48 1.408-1.376 1.664-1.12 0.32 0.064-0.512 0.32-1.92 0.512-3.136 0.224-1.248 0.512-2.656 0.672-3.168 0.48-1.504 0.352-3.616-0.192-3.84-0.288-0.096-0.48-0.608-0.48-1.312 0-1.536-0.736-3.2-1.696-3.84-0.448-0.288-1.504-0.544-2.336-0.576-1.44-0.064-1.568-0.128-1.472-0.832 0.064-0.416 0.416-1.184 0.768-1.664 0.576-0.736 0.608-0.992 0.256-1.408-0.224-0.256-0.608-0.48-0.896-0.48-0.704 0-1.888 1.568-2.368 3.136-0.416 1.408-0.416 1.408-1.632 1.216-0.704-0.128-1.76-0.576-2.368-1.056-1.408-1.088-3.424-1.152-4.832-0.16-1.376 1.024-1.664 0.896-1.664-0.704 0-1.92-0.256-2.432-1.152-2.432-0.608 0-0.768 0.224-0.96 1.152zM11.168 5.312c0.96 1.216 1.44 3.264 1.024 4.192-0.32 0.704-0.448 0.736-4.32 0.736-2.176 0-4.192-0.096-4.48-0.192-0.704-0.288-0.64-0.96 0.224-1.728 0.576-0.544 0.96-0.672 2.016-0.512 1.44 0.192 2.048-0.192 2.048-1.216 0-0.864 1.248-2.112 2.112-2.112 0.384 0 1.024 0.384 1.376 0.832zM21.184 6.944c0.736 0.672 0.8 2.816 0.064 3.104-0.288 0.096-1.792 0.192-3.36 0.192-3.136 0-2.976 0.096-3.296-2.176-0.224-1.536 0.256-1.792 1.248-0.704 0.768 0.832 1.312 0.8 2.464-0.16 1.088-0.928 2.048-1.024 2.88-0.256zM22.4 13.12c0 2.304-2.944 5.504-5.92 6.368-2.432 0.704-6.464 0.544-8.512-0.384-2.72-1.216-5.088-4.16-5.088-6.304 0-0.64 0.16-0.64 9.76-0.64h9.76v0.96zM6.4 20.672c3.136 1.504 5.6 1.92 8.416 1.408 1.28-0.224 3.136-0.832 4.16-1.312 2.176-1.088 2.144-1.088 2.144-0.32 0 0.32-0.416 0.928-0.896 1.344-1.632 1.44-2.016 3.104-1.216 5.728 0.224 0.8 0.352 1.632 0.288 1.824-0.128 0.32-1.76 0.416-6.784 0.416h-6.624l-0.352-1.536c-0.224-0.832-0.544-2.528-0.736-3.744-0.224-1.248-0.512-2.656-0.672-3.168-0.352-1.12-0.384-1.888-0.032-1.728 0.128 0.032 1.152 0.544 2.304 1.088zM24.256 24.16c0.544 0.448 1.024 0.8 1.088 0.8 0.096 0 0.544-0.352 1.024-0.8 0.992-0.928 2.144-1.024 2.88-0.288 0.928 0.896 0.544 3.552-0.704 4.768-0.704 0.704-1.056 0.8-3.296 0.8-2.496 0-2.496 0-3.36-1.152-1.024-1.344-1.28-4.064-0.448-4.608 0.832-0.512 1.824-0.352 2.816 0.48z"></path>
</symbol>
<symbol id="icon-telegram-2" viewBox="0 0 32 32">
<path d="M29.813 2.837c-2.125 0.781-28.344 10.85-28.731 11.037-1.281 0.606-1.431 1.406-0.363 1.95 0.106 0.056 1.875 0.619 3.944 1.262l3.756 1.169 8.525-5.338c4.694-2.931 8.625-5.369 8.738-5.406 0.294-0.1 0.544-0.094 0.656 0.025 0.081 0.081 0.087 0.119 0.019 0.237-0.038 0.081-3.156 2.913-6.919 6.287-3.762 3.381-6.856 6.169-6.869 6.2s-0.137 1.719-0.281 3.75l-0.262 3.688 0.287-0.038c0.156-0.019 0.4-0.1 0.544-0.181 0.15-0.075 1.125-0.962 2.181-1.969 1.050-1.006 1.95-1.85 1.994-1.863 0.044-0.019 1.719 1.169 3.725 2.637 2 1.469 3.794 2.738 3.988 2.825 0.506 0.238 1.069 0.256 1.438 0.063 0.331-0.175 0.65-0.613 0.788-1.069 0.050-0.175 1.2-5.469 2.544-11.762 2.244-10.475 2.45-11.488 2.45-12.031 0-0.513-0.019-0.638-0.156-0.906-0.094-0.194-0.262-0.388-0.425-0.5-0.369-0.256-0.981-0.288-1.569-0.069z"></path>
</symbol>
<symbol id="icon-milk" viewBox="0 0 29 32">
<path d="M6.188 0.769c0 0.975 0.081 1.631 0.319 2.594 0.1 0.419 0.169 0.8 0.138 0.844-0.025 0.037-0.544 0.744-1.156 1.563-0.612 0.813-1.169 1.6-1.244 1.75-0.712 1.388-0.125 3.1 1.3 3.8 0.375 0.188 0.487 0.213 1.044 0.231 0.756 0.025 1.2-0.088 1.756-0.456 0.281-0.188 0.512-0.45 1.106-1.231l0.744-0.994 0.169 0.106c0.806 0.531 1.65 0.963 2.406 1.225l0.419 0.144v0.919c0 1.431 0.175 1.988 0.838 2.644 1.338 1.331 3.569 1.006 4.431-0.637 0.294-0.569 0.356-0.919 0.356-2.006v-0.919l0.512-0.181c0.631-0.219 1.444-0.625 2.012-1 0.238-0.162 0.438-0.287 0.45-0.287s0.319 0.4 0.688 0.887c0.869 1.169 1.113 1.387 1.869 1.675 0.469 0.175 1.212 0.194 1.725 0.044 0.775-0.231 1.5-0.912 1.813-1.719 0.119-0.287 0.144-0.481 0.144-1.012 0.006-0.613-0.006-0.688-0.188-1.069-0.113-0.237-0.706-1.088-1.369-1.963l-1.169-1.55 0.188-0.788c0.238-0.962 0.325-1.688 0.325-2.65v-0.731h-19.625v0.769zM23.875 1.981c-0.006 0.219-0.244 1.188-0.406 1.644-0.123 0.339-0.274 0.673-0.45 0.998 0.022-0.041 0.044-0.082 0.065-0.123 0.031 0 1.698 2.081 2.117 2.638 0.419 0.563 0.813 1.119 0.875 1.237 0.306 0.594-0.119 1.325-0.775 1.325-0.462 0-0.625-0.131-1.387-1.15l-1.831-2.55c-0.684 0.82-1.522 1.515-2.425 1.981-0.644 0.331-1.281 0.556-2.063 0.731l-0.625 0.144-0.031 1.681c-0.038 1.894-0.056 1.981-0.512 2.219-0.306 0.156-0.569 0.15-0.875-0.019-0.438-0.25-0.45-0.306-0.488-2.2l-0.031-1.681-0.406-0.081c-1.836-0.371-3.434-1.307-4.591-2.619l-1.946 2.394c-0.763 1.019-0.925 1.15-1.388 1.15-0.319 0-0.525-0.125-0.744-0.45-0.225-0.325-0.194-0.662 0.094-1.081 0.237-0.35 2.919-3.506 2.944-3.513-0.292-0.549-0.52-1.138-0.675-1.756-0.069-0.269-0.144-0.613-0.162-0.762l-0.044-0.262h7.881c7.463 0 7.881 0.006 7.881 0.106z"></path>
<path d="M7.412 16.825c0.031 0.238 1.463 15.006 1.463 15.106 0 0.050 2.15 0.069 7.125 0.069 5.406 0 7.125-0.019 7.125-0.075 0-0.106 1.431-14.863 1.462-15.1l0.031-0.2h-17.238l0.031 0.2zM22.512 18.856c-0.081 1.012-0.587 2.3-1.262 3.194-0.925 1.225-2.181 2.056-3.719 2.456-0.813 0.212-2.25 0.212-3.063 0-1.956-0.506-3.519-1.769-4.375-3.531-0.3-0.613-0.563-1.525-0.606-2.119l-0.031-0.356h13.088l-0.031 0.356zM11.344 25.156c0.275 0.181 0.681 0.419 0.906 0.531 0.512 0.256 1.706 0.65 2.313 0.756 0.681 0.125 2.331 0.106 3.012-0.025 1.519-0.3 2.981-1.031 4.050-2.025l0.394-0.363-0.038 0.25c-0.019 0.137-0.156 1.506-0.3 3.044l-0.269 2.8h-10.85v-0.144c0-0.075-0.125-1.431-0.281-3.012s-0.281-2.887-0.281-2.894c0-0.012 0.188 0.15 0.425 0.363 0.231 0.212 0.644 0.538 0.919 0.719z"></path>
</symbol>
<symbol id="icon-close" viewBox="0 0 32 32">
<path stroke-linejoin="miter" stroke-linecap="butt" stroke-miterlimit="4" stroke-width="2" d="M2.519 2l26.963 28"></path>
<path stroke-linejoin="miter" stroke-linecap="butt" stroke-miterlimit="4" stroke-width="2" d="M2 29.481l28-26.963"></path>
</symbol>
<symbol id="icon-Burger" viewBox="0 0 46 32">
<path stroke-linejoin="miter" stroke-linecap="butt" stroke-miterlimit="4" stroke-width="2.2857" d="M0 2.286h45.714"></path>
<path stroke-linejoin="miter" stroke-linecap="butt" stroke-miterlimit="4" stroke-width="2.2857" d="M0 16h45.714"></path>
<path stroke-linejoin="miter" stroke-linecap="butt" stroke-miterlimit="4" stroke-width="2.2857" d="M0 29.714h45.714"></path>
</symbol>
<symbol id="icon-facebook" viewBox="0 0 32 32">
<path d="M21.329 5.313h2.921v-5.088c-0.504-0.069-2.237-0.225-4.256-0.225-4.212 0-7.097 2.649-7.097 7.519v4.481h-4.648v5.688h4.648v14.312h5.699v-14.311h4.46l0.708-5.688h-5.169v-3.919c0.001-1.644 0.444-2.769 2.735-2.769z"></path>
</symbol>
<symbol id="icon-right-arrow" viewBox="0 0 32 32">
<path d="M18.181 2.769c-0.4 0.15-0.637 0.331-1.319 1.031-0.788 0.794-0.944 1.075-0.944 1.7 0 0.775-0.088 0.662 3.756 4.512l3.481 3.488h-10.856c-10.762 0-10.863 0-11.2 0.125-0.463 0.175-0.869 0.613-1.006 1.088-0.081 0.281-0.1 0.569-0.081 1.4 0.019 0.906 0.037 1.081 0.156 1.331 0.156 0.35 0.525 0.738 0.863 0.9 0.244 0.125 0.469 0.125 11.206 0.156l10.95 0.031-3.5 3.5c-3.856 3.856-3.775 3.756-3.769 4.512 0.006 0.6 0.194 0.925 1.031 1.744 0.875 0.863 1.1 0.994 1.738 0.994 0.387-0.006 0.525-0.031 0.781-0.169 0.419-0.225 12.206-12.019 12.381-12.394s0.163-1.1-0.031-1.475c-0.2-0.4-12.050-12.238-12.406-12.4-0.325-0.144-0.944-0.181-1.231-0.075z"></path>
</symbol>
<symbol id="icon-half-arrow" viewBox="0 0 26 32">
<path stroke-linejoin="round" stroke-linecap="round" stroke-miterlimit="4" stroke-width="6.4" d="M5.172 3.2l14.169 12.8-14.169 12.8"></path>
</symbol>
</defs>
</svg>
